<?xml version="1.0" encoding="UTF-8" standalone="no"?>
<svg xmlns="http://www.w3.org/2000/svg" height="120.85mm" width="120.85mm" version="1.1" viewBox="0 0 428.19603 428.19599">
 <g transform="matrix(2.0959 0 0 2.0959 -510.86 -799.34)">
  <circle cy="483.53" cx="345.89" r="102.15"/>
  <g stroke-width="0" transform="matrix(4.0701,0,0,4.0701,290.79,428.35)">
   <g stroke-width="0" transform="matrix(.5 0 0 .5 6.804 6.804)">
    <g stroke-width="0">
     <g transform="rotate(-90 .8521 2.9781)">
      <rect height="1.7008" width=".70866" y="2.1277" x=".49776" fill="#8c8c8c"/>
     </g>
     <g transform="rotate(-90 .8521 4.3954)">
      <rect height="1.7008" width=".70866" y="3.545" x=".49776" fill="#8c8c8c"/>
     </g>
     <g transform="rotate(-90 .8521 5.8127)">
      <rect height="1.7008" width=".70866" y="4.9623" x=".49776" fill="#8c8c8c"/>
     </g>
     <g transform="rotate(-90 .8521 7.23)">
      <rect height="1.7008" width=".70866" y="6.3797" x=".49776" fill="#8c8c8c"/>
     </g>
     <g transform="rotate(-90 .85208 8.6474)">
      <rect height="1.7008" width=".70866" y="7.7969" x=".49776" fill="#8c8c8c"/>
     </g>
     <g transform="rotate(-90 .85209 10.065)">
      <rect height="1.7008" width=".70866" y="9.2143" x=".49776" fill="#8c8c8c"/>
     </g>
     <g transform="rotate(-90 .8521 11.482)">
      <rect height="1.7008" width=".70866" y="10.632" x=".49776" fill="#8c8c8c"/>
     </g>
     <g transform="rotate(-90 .85205 12.899)">
      <rect height="1.7008" width=".70866" y="12.049" x=".49776" fill="#8c8c8c"/>
     </g>
     <g transform="rotate(-90 .85205 14.317)">
      <rect height="1.7008" width=".70866" y="13.466" x=".49776" fill="#8c8c8c"/>
     </g>
     <g transform="rotate(-90 .8521 15.734)">
      <rect height="1.7008" width=".70866" y="14.884" x=".49776" fill="#8c8c8c"/>
     </g>
     <g transform="rotate(-90 .8521 17.151)">
      <rect height="1.7008" width=".70866" y="16.301" x=".49776" fill="#8c8c8c"/>
     </g>
     <g transform="rotate(-90 .8521 18.569)">
      <rect height="1.7008" width=".70866" y="17.718" x=".49776" fill="#8c8c8c"/>
     </g>
     <g transform="rotate(-90 .85205 19.986)">
      <rect height="1.7008" width=".70866" y="19.136" x=".49776" fill="#8c8c8c"/>
     </g>
     <g transform="rotate(-90 .85205 21.403)">
      <rect height="1.7008" width=".70866" y="20.553" x=".49776" fill="#8c8c8c"/>
     </g>
     <g transform="rotate(90 .8521 22.821)">
      <rect height="1.7008" width=".70866" y="21.97" x=".49776" fill="#8c8c8c"/>
     </g>
     <g transform="rotate(90 .8521 24.238)">
      <rect height="1.7008" width=".70866" y="23.388" x=".49776" fill="#8c8c8c"/>
     </g>
     <g transform="rotate(180,2.9781,26.364)">
      <rect height="1.7008" width=".70866" y="25.514" x="2.6237" fill="#8c8c8c"/>
     </g>
     <g transform="rotate(180,4.3954,26.364)">
      <rect height="1.7008" width=".70866" y="25.514" x="4.0411" fill="#8c8c8c"/>
     </g>
     <g transform="rotate(180,5.8128,26.364)">
      <rect height="1.7008" width=".70866" y="25.514" x="5.4584" fill="#8c8c8c"/>
     </g>
     <g transform="rotate(180,7.23,26.364)">
      <rect height="1.7008" width=".70866" y="25.514" x="6.8757" fill="#8c8c8c"/>
     </g>
     <g transform="rotate(180,8.6474,26.364)">
      <rect height="1.7008" width=".70866" y="25.514" x="8.293" fill="#8c8c8c"/>
     </g>
     <g transform="rotate(180,10.065,26.364)">
      <rect height="1.7008" width=".70866" y="25.514" x="9.7104" fill="#8c8c8c"/>
     </g>
     <g transform="rotate(180,11.482,26.364)">
      <rect height="1.7008" width=".70866" y="25.514" x="11.128" fill="#8c8c8c"/>
     </g>
     <g transform="rotate(180,12.899,26.364)">
      <rect height="1.7008" width=".70866" y="25.514" x="12.545" fill="#8c8c8c"/>
     </g>
     <g transform="rotate(180,14.317,26.364)">
      <rect height="1.7008" width=".70866" y="25.514" x="13.962" fill="#8c8c8c"/>
     </g>
     <g transform="rotate(180,15.734,26.364)">
      <rect height="1.7008" width=".70866" y="25.514" x="15.38" fill="#8c8c8c"/>
     </g>
     <g transform="rotate(180,17.151,26.364)">
      <rect height="1.7008" width=".70866" y="25.514" x="16.797" fill="#8c8c8c"/>
     </g>
     <g transform="rotate(180,18.569,26.364)">
      <rect height="1.7008" width=".70866" y="25.514" x="18.214" fill="#8c8c8c"/>
     </g>
    </g>
    <g fill="#8c8c8c">
     <rect y="25.514" width=".70866" x="19.632" height="1.7008"/>
     <rect y="25.514" width=".70866" x="21.049" height="1.7008"/>
     <rect y="25.514" width=".70866" x="22.466" height="1.7008"/>
     <rect y="25.514" width=".70866" x="23.884" height="1.7008"/>
    </g>
    <g stroke-width="0">
     <g transform="rotate(90,26.364,24.238)">
      <rect height="1.7008" width=".70866" y="23.388" x="26.01" fill="#8c8c8c"/>
     </g>
     <g transform="rotate(90,26.364,22.821)">
      <rect height="1.7008" width=".70866" y="21.97" x="26.01" fill="#8c8c8c"/>
     </g>
     <g transform="rotate(90,26.364,21.403)">
      <rect height="1.7008" width=".70866" y="20.553" x="26.01" fill="#8c8c8c"/>
     </g>
     <g transform="rotate(90,26.364,19.986)">
      <rect height="1.7008" width=".70866" y="19.136" x="26.01" fill="#8c8c8c"/>
     </g>
     <g transform="rotate(90,26.364,18.569)">
      <rect height="1.7008" width=".70866" y="17.718" x="26.01" fill="#8c8c8c"/>
     </g>
     <g transform="rotate(90,26.364,17.151)">
      <rect height="1.7008" width=".70866" y="16.301" x="26.01" fill="#8c8c8c"/>
     </g>
     <g transform="rotate(90,26.364,15.734)">
      <rect height="1.7008" width=".70866" y="14.884" x="26.01" fill="#8c8c8c"/>
     </g>
     <g transform="rotate(90,26.364,14.317)">
      <rect height="1.7008" width=".70866" y="13.466" x="26.01" fill="#8c8c8c"/>
     </g>
     <g transform="rotate(90,26.364,12.899)">
      <rect height="1.7008" width=".70866" y="12.049" x="26.01" fill="#8c8c8c"/>
     </g>
     <g transform="rotate(90,26.364,11.482)">
      <rect height="1.7008" width=".70866" y="10.632" x="26.01" fill="#8c8c8c"/>
     </g>
     <g transform="rotate(90,26.364,10.065)">
      <rect height="1.7008" width=".70866" y="9.2143" x="26.01" fill="#8c8c8c"/>
     </g>
     <g transform="rotate(90,26.364,8.6474)">
      <rect height="1.7008" width=".70866" y="7.7969" x="26.01" fill="#8c8c8c"/>
     </g>
     <g transform="rotate(90,26.364,7.23)">
      <rect height="1.7008" width=".70866" y="6.3797" x="26.01" fill="#8c8c8c"/>
     </g>
     <g transform="rotate(90,26.364,5.8128)">
      <rect height="1.7008" width=".70866" y="4.9623" x="26.01" fill="#8c8c8c"/>
     </g>
     <g transform="rotate(90,26.364,4.3954)">
      <rect height="1.7008" width=".70866" y="3.545" x="26.01" fill="#8c8c8c"/>
     </g>
     <g transform="rotate(90,26.364,2.9781)">
      <rect height="1.7008" width=".70866" y="2.1277" x="26.01" fill="#8c8c8c"/>
     </g>
    </g>
    <g fill="#8c8c8c">
     <rect y=".0017008" width=".70866" x="23.884" height="1.7008"/>
     <rect y=".0017008" width=".70866" x="22.466" height="1.7008"/>
     <rect y=".0017008" width=".70866" x="21.049" height="1.7008"/>
     <rect y=".0017008" width=".70866" x="19.632" height="1.7008"/>
     <rect y=".0017008" width=".70866" x="18.214" height="1.7008"/>
     <rect y=".0017008" width=".70866" x="16.797" height="1.7008"/>
     <rect y=".0017008" width=".70866" x="15.38" height="1.7008"/>
     <rect y=".0017008" width=".70866" x="13.962" height="1.7008"/>
     <rect y=".0017008" width=".70866" x="12.545" height="1.7008"/>
     <rect y=".0017008" width=".70866" x="11.128" height="1.7008"/>
     <rect y=".0017008" width=".70866" x="9.7104" height="1.7008"/>
     <rect y=".0017008" width=".70866" x="8.293" height="1.7008"/>
     <rect y=".0017008" width=".70866" x="6.8757" height="1.7008"/>
     <rect y=".0017008" width=".70866" x="5.4584" height="1.7008"/>
     <rect y=".0017008" width=".70866" x="4.0411" height="1.7008"/>
     <rect y=".0017008" width=".70866" x="2.6237" height="1.7008"/>
    </g>
    <rect height="25.512" width="25.512" y=".85209" x=".85209" fill="#303030"/>
    <g stroke-width="0">
     <polygon points="0.85209 0.85209 26.364 0.85209 25.644 1.5721 1.5721 1.5721" fill="#1f1f1f"/>
     <polygon points="0.85209 26.364 26.364 26.364 25.644 25.644 1.5721 25.644" fill="#1f1f1f"/>
     <polygon points="0.85209 0.85209 0.85209 26.364 1.5721 25.644 1.5721 1.5721"/>
     <polygon points="26.364 0.85209 26.364 26.364 25.644 25.644 25.644 1.5721" fill="#3d3d3d"/>
    </g>
    <circle cy="24.204" cx="3.0121" r="0.72" fill="#1f1f1f"/>
   </g>
  </g>
  <text style="word-spacing:0px;letter-spacing:0px" xml:space="preserve" font-size="6.25px" y="486.06323" x="324.56207" font-family="sans-serif" line-height="23.43749428px" fill="#f4e3d7"><tspan font-size="6.25px" y="486.06323" x="324.56207" stroke-width=".9375px" fill="#f4e3d7">MSP430F1611</tspan></text>
  <path fill="none" d="m396.75 471.28a86.179 86.179 0 0 1 -86.179 86.179 86.179 86.179 0 0 1 -86.179 -86.179 86.179 86.179 0 0 1 86.179 -86.179 86.179 86.179 0 0 1 86.179 86.179z"/>
  <g transform="translate(-96.624,-15.868)">
   <g transform="matrix(.045 0 0 .045 513.71 481.39)">
    <g id="icon">
     <g transform="translate(100,163.88)">
      <g id="silkscreen">
       <circle cy="239.96" cx="236.28" r="232.29" fill="#ccc"/>
       <path opacity="0.79" d="m4 239.96c0 128.28 104 232.29 232.29 232.29s232.29-103.99 232.29-232.29v-3.6806c0 128.28-104 232.29-232.29 232.29s-232.29-104-232.29-232.29" enable-background="new    "/>
      </g>
      <g id="silkscreen_2_">
       <circle cy="224.31" cx="236.28" r="223.99" fill="#020"/>
       <circle opacity=".35" r="223.99" cy="224.31" cx="236.28" enable-background="new    "/>
       <path opacity="0.24" d="m12.292 228.29c0-123.69 100.29-223.99 223.99-223.99 123.69 0 223.97 100.29 223.97 223.99v-3.9722c0-123.69-100.29-223.99-223.97-223.99-123.69 0-223.99 100.29-223.99 223.99z" enable-background="new    " fill="#fff"/>
       <path opacity="0.52" d="m12.292 231.85c0 123.69 100.29 223.97 223.99 223.97 123.69 0 223.97-100.29 223.97-223.97v-7.5278c0 123.71-100.29 223.96-223.97 223.96-123.69 0-223.99-100.29-223.99-223.96z" enable-background="new    "/>
      </g>
      <g id="silkscreen_1_">
       <circle cy="207.5" cx="236.28" r="205.47" fill="#020"/>
       <path opacity=".7" d="m78.694 182.97c11.819-76.417 77.861-6.9722 157.58-6.9722 60.528 0 113.21-94.208 140.21-44.5-26.98-49.709-79.66-83.459-140.2-83.459-79.71 0.001-145.77 58.519-157.59 134.93z" enable-background="new    " fill="#fff"/>
      </g>
     </g>
    </g>
   </g>
   <g transform="matrix(.045 0 0 .045 507.15 514.38)">
    <g transform="translate(100,163.88)">
     <circle cy="239.96" cx="236.28" r="232.29" fill="#ccc"/>
     <path opacity="0.79" d="m4 239.96c0 128.28 104 232.29 232.29 232.29s232.29-103.99 232.29-232.29v-3.6806c0 128.28-104 232.29-232.29 232.29s-232.29-104-232.29-232.29" enable-background="new    "/>
     <circle cy="224.31" cx="236.28" r="223.99" fill="#020"/>
     <circle opacity=".35" r="223.99" cy="224.31" cx="236.28" enable-background="new    "/>
     <path opacity="0.24" d="m12.292 228.29c0-123.69 100.29-223.99 223.99-223.99 123.69 0 223.97 100.29 223.97 223.99v-3.9722c0-123.69-100.29-223.99-223.97-223.99-123.69 0-223.99 100.29-223.99 223.99z" enable-background="new    " fill="#fff"/>
     <path opacity="0.52" d="m12.292 231.85c0 123.69 100.29 223.97 223.99 223.97 123.69 0 223.97-100.29 223.97-223.97v-7.5278c0 123.71-100.29 223.96-223.97 223.96-123.69 0-223.99-100.29-223.99-223.96z" enable-background="new    "/>
     <circle cy="207.5" cx="236.28" r="205.47" fill="#020"/>
     <path opacity=".7" d="m78.694 182.97c11.819-76.417 77.861-6.9722 157.58-6.9722 60.528 0 113.21-94.208 140.21-44.5-26.98-49.709-79.66-83.459-140.2-83.459-79.71 0.001-145.77 58.519-157.59 134.93z" enable-background="new    " fill="#fff"/>
    </g>
   </g>
   <g transform="matrix(.045 0 0 .045 488.46 542.34)">
    <g transform="translate(100,163.88)">
     <circle cy="239.96" cx="236.28" r="232.29" fill="#ccc"/>
     <path opacity="0.79" d="m4 239.96c0 128.28 104 232.29 232.29 232.29s232.29-103.99 232.29-232.29v-3.6806c0 128.28-104 232.29-232.29 232.29s-232.29-104-232.29-232.29" enable-background="new    "/>
     <circle cy="224.31" cx="236.28" r="223.99" fill="#020"/>
     <circle opacity=".35" r="223.99" cy="224.31" cx="236.28" enable-background="new    "/>
     <path opacity="0.24" d="m12.292 228.29c0-123.69 100.29-223.99 223.99-223.99 123.69 0 223.97 100.29 223.97 223.99v-3.9722c0-123.69-100.29-223.99-223.97-223.99-123.69 0-223.99 100.29-223.99 223.99z" enable-background="new    " fill="#fff"/>
     <path opacity="0.52" d="m12.292 231.85c0 123.69 100.29 223.97 223.99 223.97 123.69 0 223.97-100.29 223.97-223.97v-7.5278c0 123.71-100.29 223.96-223.97 223.96-123.69 0-223.99-100.29-223.99-223.96z" enable-background="new    "/>
     <circle cy="207.5" cx="236.28" r="205.47" fill="#020"/>
     <path opacity=".7" d="m78.694 182.97c11.819-76.417 77.861-6.9722 157.58-6.9722 60.528 0 113.21-94.208 140.21-44.5-26.98-49.709-79.66-83.459-140.2-83.459-79.71 0.001-145.77 58.519-157.59 134.93z" enable-background="new    " fill="#fff"/>
    </g>
   </g>
   <g transform="matrix(.045 0 0 .045 460.5 561.02)">
    <g transform="translate(100,163.88)">
     <circle cy="239.96" cx="236.28" r="232.29" fill="#ccc"/>
     <path opacity="0.79" d="m4 239.96c0 128.28 104 232.29 232.29 232.29s232.29-103.99 232.29-232.29v-3.6806c0 128.28-104 232.29-232.29 232.29s-232.29-104-232.29-232.29" enable-background="new    "/>
     <circle cy="224.31" cx="236.28" r="223.99" fill="#020"/>
     <circle opacity=".35" r="223.99" cy="224.31" cx="236.28" enable-background="new    "/>
     <path opacity="0.24" d="m12.292 228.29c0-123.69 100.29-223.99 223.99-223.99 123.69 0 223.97 100.29 223.97 223.99v-3.9722c0-123.69-100.29-223.99-223.97-223.99-123.69 0-223.99 100.29-223.99 223.99z" enable-background="new    " fill="#fff"/>
     <path opacity="0.52" d="m12.292 231.85c0 123.69 100.29 223.97 223.99 223.97 123.69 0 223.97-100.29 223.97-223.97v-7.5278c0 123.71-100.29 223.96-223.97 223.96-123.69 0-223.99-100.29-223.99-223.96z" enable-background="new    "/>
     <circle cy="207.5" cx="236.28" r="205.47" fill="#020"/>
     <path opacity=".7" d="m78.694 182.97c11.819-76.417 77.861-6.9722 157.58-6.9722 60.528 0 113.21-94.208 140.21-44.5-26.98-49.709-79.66-83.459-140.2-83.459-79.71 0.001-145.77 58.519-157.59 134.93z" enable-background="new    " fill="#fff"/>
    </g>
   </g>
   <g transform="matrix(.045 0 0 .045 427.52 567.57)">
    <g transform="translate(100,163.88)">
     <circle cy="239.96" cx="236.28" r="232.29" fill="#ccc"/>
     <path opacity="0.79" d="m4 239.96c0 128.28 104 232.29 232.29 232.29s232.29-103.99 232.29-232.29v-3.6806c0 128.28-104 232.29-232.29 232.29s-232.29-104-232.29-232.29" enable-background="new    "/>
     <circle cy="224.31" cx="236.28" r="223.99" fill="#020"/>
     <circle opacity=".35" r="223.99" cy="224.31" cx="236.28" enable-background="new    "/>
     <path opacity="0.24" d="m12.292 228.29c0-123.69 100.29-223.99 223.99-223.99 123.69 0 223.97 100.29 223.97 223.99v-3.9722c0-123.69-100.29-223.99-223.97-223.99-123.69 0-223.99 100.29-223.99 223.99z" enable-background="new    " fill="#fff"/>
     <path opacity="0.52" d="m12.292 231.85c0 123.69 100.29 223.97 223.99 223.97 123.69 0 223.97-100.29 223.97-223.97v-7.5278c0 123.71-100.29 223.96-223.97 223.96-123.69 0-223.99-100.29-223.99-223.96z" enable-background="new    "/>
     <circle cy="207.5" cx="236.28" r="205.47" fill="#020"/>
     <path opacity=".7" d="m78.694 182.97c11.819-76.417 77.861-6.9722 157.58-6.9722 60.528 0 113.21-94.208 140.21-44.5-26.98-49.709-79.66-83.459-140.2-83.459-79.71 0.001-145.77 58.519-157.59 134.93z" enable-background="new    " fill="#fff"/>
    </g>
   </g>
   <g transform="matrix(.045 0 0 .045 394.54 561.02)">
    <g transform="translate(100,163.88)">
     <circle cy="239.96" cx="236.28" r="232.29" fill="#ccc"/>
     <path opacity="0.79" d="m4 239.96c0 128.28 104 232.29 232.29 232.29s232.29-103.99 232.29-232.29v-3.6806c0 128.28-104 232.29-232.29 232.29s-232.29-104-232.29-232.29" enable-background="new    "/>
     <circle cy="224.31" cx="236.28" r="223.99" fill="#020"/>
     <circle opacity=".35" r="223.99" cy="224.31" cx="236.28" enable-background="new    "/>
     <path opacity="0.24" d="m12.292 228.29c0-123.69 100.29-223.99 223.99-223.99 123.69 0 223.97 100.29 223.97 223.99v-3.9722c0-123.69-100.29-223.99-223.97-223.99-123.69 0-223.99 100.29-223.99 223.99z" enable-background="new    " fill="#fff"/>
     <path opacity="0.52" d="m12.292 231.85c0 123.69 100.29 223.97 223.99 223.97 123.69 0 223.97-100.29 223.97-223.97v-7.5278c0 123.71-100.29 223.96-223.97 223.96-123.69 0-223.99-100.29-223.99-223.96z" enable-background="new    "/>
     <circle cy="207.5" cx="236.28" r="205.47" fill="#020"/>
     <path opacity=".7" d="m78.694 182.97c11.819-76.417 77.861-6.9722 157.58-6.9722 60.528 0 113.21-94.208 140.21-44.5-26.98-49.709-79.66-83.459-140.2-83.459-79.71 0.001-145.77 58.519-157.59 134.93z" enable-background="new    " fill="#fff"/>
    </g>
   </g>
   <g transform="matrix(.045 0 0 .045 366.59 542.33)">
    <g transform="translate(100,163.88)">
     <circle cy="239.96" cx="236.28" r="232.29" fill="#ccc"/>
     <path opacity="0.79" d="m4 239.96c0 128.28 104 232.29 232.29 232.29s232.29-103.99 232.29-232.29v-3.6806c0 128.28-104 232.29-232.29 232.29s-232.29-104-232.29-232.29" enable-background="new    "/>
     <circle cy="224.31" cx="236.28" r="223.99" fill="#020"/>
     <circle opacity=".35" r="223.99" cy="224.31" cx="236.28" enable-background="new    "/>
     <path opacity="0.24" d="m12.292 228.29c0-123.69 100.29-223.99 223.99-223.99 123.69 0 223.97 100.29 223.97 223.99v-3.9722c0-123.69-100.29-223.99-223.97-223.99-123.69 0-223.99 100.29-223.99 223.99z" enable-background="new    " fill="#fff"/>
     <path opacity="0.52" d="m12.292 231.85c0 123.69 100.29 223.97 223.99 223.97 123.69 0 223.97-100.29 223.97-223.97v-7.5278c0 123.71-100.29 223.96-223.97 223.96-123.69 0-223.99-100.29-223.99-223.96z" enable-background="new    "/>
     <circle cy="207.5" cx="236.28" r="205.47" fill="#020"/>
     <path opacity=".7" d="m78.694 182.97c11.819-76.417 77.861-6.9722 157.58-6.9722 60.528 0 113.21-94.208 140.21-44.5-26.98-49.709-79.66-83.459-140.2-83.459-79.71 0.001-145.77 58.519-157.59 134.93z" enable-background="new    " fill="#fff"/>
    </g>
   </g>
   <g transform="matrix(.045 0 0 .045 347.9 514.37)">
    <g transform="translate(100,163.88)">
     <circle cy="239.96" cx="236.28" r="232.29" fill="#ccc"/>
     <path opacity="0.79" d="m4 239.96c0 128.28 104 232.29 232.29 232.29s232.29-103.99 232.29-232.29v-3.6806c0 128.28-104 232.29-232.29 232.29s-232.29-104-232.29-232.29" enable-background="new    "/>
     <circle cy="224.31" cx="236.28" r="223.99" fill="#020"/>
     <circle opacity=".35" r="223.99" cy="224.31" cx="236.28" enable-background="new    "/>
     <path opacity="0.24" d="m12.292 228.29c0-123.69 100.29-223.99 223.99-223.99 123.69 0 223.97 100.29 223.97 223.99v-3.9722c0-123.69-100.29-223.99-223.97-223.99-123.69 0-223.99 100.29-223.99 223.99z" enable-background="new    " fill="#fff"/>
     <path opacity="0.52" d="m12.292 231.85c0 123.69 100.29 223.97 223.99 223.97 123.69 0 223.97-100.29 223.97-223.97v-7.5278c0 123.71-100.29 223.96-223.97 223.96-123.69 0-223.99-100.29-223.99-223.96z" enable-background="new    "/>
     <circle cy="207.5" cx="236.28" r="205.47" fill="#020"/>
     <path opacity=".7" d="m78.694 182.97c11.819-76.417 77.861-6.9722 157.58-6.9722 60.528 0 113.21-94.208 140.21-44.5-26.98-49.709-79.66-83.459-140.2-83.459-79.71 0.001-145.77 58.519-157.59 134.93z" enable-background="new    " fill="#fff"/>
    </g>
   </g>
   <g transform="matrix(.045 0 0 .045 341.35 481.39)">
    <g transform="translate(100,163.88)">
     <circle cy="239.96" cx="236.28" r="232.29" fill="#ccc"/>
     <path opacity="0.79" d="m4 239.96c0 128.28 104 232.29 232.29 232.29s232.29-103.99 232.29-232.29v-3.6806c0 128.28-104 232.29-232.29 232.29s-232.29-104-232.29-232.29" enable-background="new    "/>
     <circle cy="224.31" cx="236.28" r="223.99" fill="#020"/>
     <circle opacity=".35" r="223.99" cy="224.31" cx="236.28" enable-background="new    "/>
     <path opacity="0.24" d="m12.292 228.29c0-123.69 100.29-223.99 223.99-223.99 123.69 0 223.97 100.29 223.97 223.99v-3.9722c0-123.69-100.29-223.99-223.97-223.99-123.69 0-223.99 100.29-223.99 223.99z" enable-background="new    " fill="#fff"/>
     <path opacity="0.52" d="m12.292 231.85c0 123.69 100.29 223.97 223.99 223.97 123.69 0 223.97-100.29 223.97-223.97v-7.5278c0 123.71-100.29 223.96-223.97 223.96-123.69 0-223.99-100.29-223.99-223.96z" enable-background="new    "/>
     <circle cy="207.5" cx="236.28" r="205.47" fill="#020"/>
     <path opacity=".7" d="m78.694 182.97c11.819-76.417 77.861-6.9722 157.58-6.9722 60.528 0 113.21-94.208 140.21-44.5-26.98-49.709-79.66-83.459-140.2-83.459-79.71 0.001-145.77 58.519-157.59 134.93z" enable-background="new    " fill="#fff"/>
    </g>
   </g>
   <g transform="matrix(.045 0 0 .045 347.9 448.41)">
    <g transform="translate(100,163.88)">
     <circle cy="239.96" cx="236.28" r="232.29" fill="#ccc"/>
     <path opacity="0.79" d="m4 239.96c0 128.28 104 232.29 232.29 232.29s232.29-103.99 232.29-232.29v-3.6806c0 128.28-104 232.29-232.29 232.29s-232.29-104-232.29-232.29" enable-background="new    "/>
     <circle cy="224.31" cx="236.28" r="223.99" fill="#020"/>
     <circle opacity=".35" r="223.99" cy="224.31" cx="236.28" enable-background="new    "/>
     <path opacity="0.24" d="m12.292 228.29c0-123.69 100.29-223.99 223.99-223.99 123.69 0 223.97 100.29 223.97 223.99v-3.9722c0-123.69-100.29-223.99-223.97-223.99-123.69 0-223.99 100.29-223.99 223.99z" enable-background="new    " fill="#fff"/>
     <path opacity="0.52" d="m12.292 231.85c0 123.69 100.29 223.97 223.99 223.97 123.69 0 223.97-100.29 223.97-223.97v-7.5278c0 123.71-100.29 223.96-223.97 223.96-123.69 0-223.99-100.29-223.99-223.96z" enable-background="new    "/>
     <circle cy="207.5" cx="236.28" r="205.47" fill="#020"/>
     <path opacity=".7" d="m78.694 182.97c11.819-76.417 77.861-6.9722 157.58-6.9722 60.528 0 113.21-94.208 140.21-44.5-26.98-49.709-79.66-83.459-140.2-83.459-79.71 0.001-145.77 58.519-157.59 134.93z" enable-background="new    " fill="#fff"/>
    </g>
   </g>
   <g transform="matrix(.045 0 0 .045 366.59 420.46)">
    <g transform="translate(100,163.88)">
     <circle cy="239.96" cx="236.28" r="232.29" fill="#ccc"/>
     <path opacity="0.79" d="m4 239.96c0 128.28 104 232.29 232.29 232.29s232.29-103.99 232.29-232.29v-3.6806c0 128.28-104 232.29-232.29 232.29s-232.29-104-232.29-232.29" enable-background="new    "/>
     <circle cy="224.31" cx="236.28" r="223.99" fill="#020"/>
     <circle opacity=".35" r="223.99" cy="224.31" cx="236.28" enable-background="new    "/>
     <path opacity="0.24" d="m12.292 228.29c0-123.69 100.29-223.99 223.99-223.99 123.69 0 223.97 100.29 223.97 223.99v-3.9722c0-123.69-100.29-223.99-223.97-223.99-123.69 0-223.99 100.29-223.99 223.99z" enable-background="new    " fill="#fff"/>
     <path opacity="0.52" d="m12.292 231.85c0 123.69 100.29 223.97 223.99 223.97 123.69 0 223.97-100.29 223.97-223.97v-7.5278c0 123.71-100.29 223.96-223.97 223.96-123.69 0-223.99-100.29-223.99-223.96z" enable-background="new    "/>
     <circle cy="207.5" cx="236.28" r="205.47" fill="#020"/>
     <path opacity=".7" d="m78.694 182.97c11.819-76.417 77.861-6.9722 157.58-6.9722 60.528 0 113.21-94.208 140.21-44.5-26.98-49.709-79.66-83.459-140.2-83.459-79.71 0.001-145.77 58.519-157.59 134.93z" enable-background="new    " fill="#fff"/>
    </g>
   </g>
   <g transform="matrix(.045 0 0 .045 394.54 401.77)">
    <g transform="translate(100,163.88)">
     <circle cy="239.96" cx="236.28" r="232.29" fill="#ccc"/>
     <path opacity="0.79" d="m4 239.96c0 128.28 104 232.29 232.29 232.29s232.29-103.99 232.29-232.29v-3.6806c0 128.28-104 232.29-232.29 232.29s-232.29-104-232.29-232.29" enable-background="new    "/>
     <circle cy="224.31" cx="236.28" r="223.99" fill="#020"/>
     <circle opacity=".35" r="223.99" cy="224.31" cx="236.28" enable-background="new    "/>
     <path opacity="0.24" d="m12.292 228.29c0-123.69 100.29-223.99 223.99-223.99 123.69 0 223.97 100.29 223.97 223.99v-3.9722c0-123.69-100.29-223.99-223.97-223.99-123.69 0-223.99 100.29-223.99 223.99z" enable-background="new    " fill="#fff"/>
     <path opacity="0.52" d="m12.292 231.85c0 123.69 100.29 223.97 223.99 223.97 123.69 0 223.97-100.29 223.97-223.97v-7.5278c0 123.71-100.29 223.96-223.97 223.96-123.69 0-223.99-100.29-223.99-223.96z" enable-background="new    "/>
     <circle cy="207.5" cx="236.28" r="205.47" fill="#020"/>
     <path opacity=".7" d="m78.694 182.97c11.819-76.417 77.861-6.9722 157.58-6.9722 60.528 0 113.21-94.208 140.21-44.5-26.98-49.709-79.66-83.459-140.2-83.459-79.71 0.001-145.77 58.519-157.59 134.93z" enable-background="new    " fill="#fff"/>
    </g>
   </g>
   <g transform="matrix(.045 0 0 .045 427.52 395.22)">
    <g transform="translate(100,163.88)">
     <circle cy="239.96" cx="236.28" r="232.29" fill="#ccc"/>
     <path opacity="0.79" d="m4 239.96c0 128.28 104 232.29 232.29 232.29s232.29-103.99 232.29-232.29v-3.6806c0 128.28-104 232.29-232.29 232.29s-232.29-104-232.29-232.29" enable-background="new    "/>
     <circle cy="224.31" cx="236.28" r="223.99" fill="#020"/>
     <circle opacity=".35" r="223.99" cy="224.31" cx="236.28" enable-background="new    "/>
     <path opacity="0.24" d="m12.292 228.29c0-123.69 100.29-223.99 223.99-223.99 123.69 0 223.97 100.29 223.97 223.99v-3.9722c0-123.69-100.29-223.99-223.97-223.99-123.69 0-223.99 100.29-223.99 223.99z" enable-background="new    " fill="#fff"/>
     <path opacity="0.52" d="m12.292 231.85c0 123.69 100.29 223.97 223.99 223.97 123.69 0 223.97-100.29 223.97-223.97v-7.5278c0 123.71-100.29 223.96-223.97 223.96-123.69 0-223.99-100.29-223.99-223.96z" enable-background="new    "/>
     <circle cy="207.5" cx="236.28" r="205.47" fill="#020"/>
     <path opacity=".7" d="m78.694 182.97c11.819-76.417 77.861-6.9722 157.58-6.9722 60.528 0 113.21-94.208 140.21-44.5-26.98-49.709-79.66-83.459-140.2-83.459-79.71 0.001-145.77 58.519-157.59 134.93z" enable-background="new    " fill="#fff"/>
    </g>
   </g>
   <g transform="matrix(.045 0 0 .045 460.5 401.77)">
    <g transform="translate(100,163.88)">
     <circle cy="239.96" cx="236.28" r="232.29" fill="#ccc"/>
     <path opacity="0.79" d="m4 239.96c0 128.28 104 232.29 232.29 232.29s232.29-103.99 232.29-232.29v-3.6806c0 128.28-104 232.29-232.29 232.29s-232.29-104-232.29-232.29" enable-background="new    "/>
     <circle cy="224.31" cx="236.28" r="223.99" fill="#020"/>
     <circle opacity=".35" r="223.99" cy="224.31" cx="236.28" enable-background="new    "/>
     <path opacity="0.24" d="m12.292 228.29c0-123.69 100.29-223.99 223.99-223.99 123.69 0 223.97 100.29 223.97 223.99v-3.9722c0-123.69-100.29-223.99-223.97-223.99-123.69 0-223.99 100.29-223.99 223.99z" enable-background="new    " fill="#fff"/>
     <path opacity="0.52" d="m12.292 231.85c0 123.69 100.29 223.97 223.99 223.97 123.69 0 223.97-100.29 223.97-223.97v-7.5278c0 123.71-100.29 223.96-223.97 223.96-123.69 0-223.99-100.29-223.99-223.96z" enable-background="new    "/>
     <circle cy="207.5" cx="236.28" r="205.47" fill="#020"/>
     <path opacity=".7" d="m78.694 182.97c11.819-76.417 77.861-6.9722 157.58-6.9722 60.528 0 113.21-94.208 140.21-44.5-26.98-49.709-79.66-83.459-140.2-83.459-79.71 0.001-145.77 58.519-157.59 134.93z" enable-background="new    " fill="#fff"/>
    </g>
   </g>
   <g transform="matrix(.045 0 0 .045 488.46 420.45)">
    <g transform="translate(100,163.88)">
     <circle cy="239.96" cx="236.28" r="232.29" fill="#ccc"/>
     <path opacity="0.79" d="m4 239.96c0 128.28 104 232.29 232.29 232.29s232.29-103.99 232.29-232.29v-3.6806c0 128.28-104 232.29-232.29 232.29s-232.29-104-232.29-232.29" enable-background="new    "/>
     <circle cy="224.31" cx="236.28" r="223.99" fill="#020"/>
     <circle opacity=".35" r="223.99" cy="224.31" cx="236.28" enable-background="new    "/>
     <path opacity="0.24" d="m12.292 228.29c0-123.69 100.29-223.99 223.99-223.99 123.69 0 223.97 100.29 223.97 223.99v-3.9722c0-123.69-100.29-223.99-223.97-223.99-123.69 0-223.99 100.29-223.99 223.99z" enable-background="new    " fill="#fff"/>
     <path opacity="0.52" d="m12.292 231.85c0 123.69 100.29 223.97 223.99 223.97 123.69 0 223.97-100.29 223.97-223.97v-7.5278c0 123.71-100.29 223.96-223.97 223.96-123.69 0-223.99-100.29-223.99-223.96z" enable-background="new    "/>
     <circle cy="207.5" cx="236.28" r="205.47" fill="#020"/>
     <path opacity=".7" d="m78.694 182.97c11.819-76.417 77.861-6.9722 157.58-6.9722 60.528 0 113.21-94.208 140.21-44.5-26.98-49.709-79.66-83.459-140.2-83.459-79.71 0.001-145.77 58.519-157.59 134.93z" enable-background="new    " fill="#fff"/>
    </g>
   </g>
   <g transform="matrix(.045 0 0 .045 507.15 448.41)">
    <g transform="translate(100,163.88)">
     <circle cy="239.96" cx="236.28" r="232.29" fill="#ccc"/>
     <path opacity="0.79" d="m4 239.96c0 128.28 104 232.29 232.29 232.29s232.29-103.99 232.29-232.29v-3.6806c0 128.28-104 232.29-232.29 232.29s-232.29-104-232.29-232.29" enable-background="new    "/>
     <circle cy="224.31" cx="236.28" r="223.99" fill="#020"/>
     <circle opacity=".35" r="223.99" cy="224.31" cx="236.28" enable-background="new    "/>
     <path opacity="0.24" d="m12.292 228.29c0-123.69 100.29-223.99 223.99-223.99 123.69 0 223.97 100.29 223.97 223.99v-3.9722c0-123.69-100.29-223.99-223.97-223.99-123.69 0-223.99 100.29-223.99 223.99z" enable-background="new    " fill="#fff"/>
     <path opacity="0.52" d="m12.292 231.85c0 123.69 100.29 223.97 223.99 223.97 123.69 0 223.97-100.29 223.97-223.97v-7.5278c0 123.71-100.29 223.96-223.97 223.96-123.69 0-223.99-100.29-223.99-223.96z" enable-background="new    "/>
     <circle cy="207.5" cx="236.28" r="205.47" fill="#020"/>
     <path opacity=".7" d="m78.694 182.97c11.819-76.417 77.861-6.9722 157.58-6.9722 60.528 0 113.21-94.208 140.21-44.5-26.98-49.709-79.66-83.459-140.2-83.459-79.71 0.001-145.77 58.519-157.59 134.93z" enable-background="new    " fill="#fff"/>
    </g>
   </g>
  </g>
  <g font-size="6.75px" font-family="sans-serif" fill="#fff">
   <text style="word-spacing:0px;letter-spacing:0px" xml:space="preserve" line-height="23.43749809px" y="435.13165" x="332.23151"><tspan y="435.13165" x="332.23151" stroke-width=".9375px" fill="#ffffff">16xRGB</tspan></text>
   <text style="word-spacing:0px;letter-spacing:0px" xml:space="preserve" line-height="23.43749809px" y="486.34973" x="283.48041"><tspan y="486.34973" x="283.48041" stroke-width=".9375px" fill="#ffffff">R: 1, 2</tspan></text>
   <text style="word-spacing:0px;letter-spacing:0px" xml:space="preserve" line-height="23.4375px" y="486.34973" x="386.52502"><tspan y="486.34973" x="386.52502" stroke-width=".9375px" fill="#ffffff">B: 5, 6</tspan></text>
   <text style="word-spacing:0px;letter-spacing:0px" xml:space="preserve" line-height="23.43750191px" y="537.99683" x="334.30847"><tspan y="537.99683" x="334.30847" stroke-width=".9375px" fill="#ffffff">G: 3, 4</tspan></text>
  </g>
 </g>
</svg>
